<?xml version="1.0" encoding="UTF-8" standalone="no"?>
<svg
   height="395pt"
   width="663pt"
   version="1.1"
   viewBox="0 0 663 395"
   id="svg4"
   sodipodi:docname="BudJet.svg"
   inkscape:version="1.1.1 (3bf5ae0d25, 2021-09-20)"
   xmlns:inkscape="http://www.inkscape.org/namespaces/inkscape"
   xmlns:sodipodi="http://sodipodi.sourceforge.net/DTD/sodipodi-0.dtd"
   xmlns="http://www.w3.org/2000/svg"
   xmlns:svg="http://www.w3.org/2000/svg">
  <defs
     id="defs8" />
  <sodipodi:namedview
     id="namedview6"
     pagecolor="#505050"
     bordercolor="#ffffff"
     borderopacity="1"
     inkscape:pageshadow="0"
     inkscape:pageopacity="0"
     inkscape:pagecheckerboard="1"
     inkscape:document-units="pt"
     showgrid="false"
     inkscape:zoom="0.63574661"
     inkscape:cx="280.77224"
     inkscape:cy="557.6121"
     inkscape:window-width="1910"
     inkscape:window-height="1030"
     inkscape:window-x="1920"
     inkscape:window-y="1096"
     inkscape:window-maximized="0"
     inkscape:current-layer="svg4" />
  <path
     d="M 469.50347,35.020599 462.63147,53.231789 436.48747,63.250189 444.33547,93.970989 423.40297,144.27787 406.80747,149.41099 370.70834,165.46954 297.42933,181.14058 231.75655,198.65861 205.51947,200.25899 193.01978,200.43826 143.60884,170.35322 84.614376,193.08291 101.73337,274.91213 82.493046,287.68893 33.043433,339.98606 7.9279331,375.38071 4.7019731,388.65103 19.212553,391.72328 95.605603,377.92563 196.93273,349.1268 212.99822,352.06386 242.64958,353.75373 283.78165,345.32 301.0973,335.05376 515.74226,337.48309 563.29745,333.19149 618.74523,315.54399 657.00457,291.07147 527.45369,269.94153 430.91015,245.48968 415.23493,234.66633 418.2726,228.33286 490.66374,174.72021 540.61731,136.68522 554.73025,121.15715 549.5201,107.36939 511.04438,115.17682 511.15487,100.34339 524.50635,99.522199 577.80209,78.753549 564.8829,73.445219 519.2796,66.242409 469.50347,35.020599"
     style="fill:#ffffff;fill-opacity:1;stroke:#000000;stroke-width:0.654967px;stroke-linecap:butt;stroke-linejoin:miter;stroke-opacity:1"
     id="path2222" />
  <path
     d="M 663.5,0 C 636.46,11.55 611.26,26.812 586.91,43.162 581.51,49.45 583.15,59.201 578.32,65.926 567.5,70.276 556.37,73.987 545.64,78.449 538.36,92.324 547.59,106.01 555.45,116.85 554.32,128.77 545.2,138.36 540.06,148.85 530.14,165.92 526.11,188.39 507.8,199.06 468.71,223.98 424.78,239.94 382.68,258.57 373.24,251.37 362.04,244.39 352.2,238.8 404.76,222.09 462.44,220.1 511.32,192.55 516.57,191.04 515.92,181.29 508.54,186.15 473.21,196.58 438.18,209.06 401.46,213.96 352.19,221.26 305.41,239.43 256.93,249.71 237.71,241.56 220.51,229.39 202.76,218.55 193.57,212.45 181.76,202.18 170.25,208.93 147.61,219.96 122.01,226.04 100.89,238.95 101.64,271.47 114.85,303.91 120.51,335.5 104.9,350.7 88.551,365.2 73.926,381.43 46.101,405.26 30.275,439.19 6.438,466.38 3.4375,471.7 1.9125,477.69 0,483.45 V 488.9 C 3.0625,490.43 6.0621,492.05 9.0371,493.75 H 22.7131 C 99.2251,483.95 175.3631,467.23 249.1931,444.15 261.0031,437.4 272.2431,449.73 284.3031,449.71 307.8031,450.63 330.6631,443.49 352.8831,436.68 366.5431,430.64 379.4531,420.86 395.5731,425.35 455.9731,433.6 516.9931,424.22 577.5431,428.35 620.1031,427.57 662.4031,422.85 704.8031,419.96 739.7131,412.65 773.8431,400.79 805.4131,384.11 814.2231,379.84 823.9031,375.81 828.7531,366.64 V 357.62 C 763.2531,343.7 694.8231,342.44 630.0431,323.68 595.1131,313.33 557.1131,310.35 524.8931,292.6 523.8131,282.16 543.0031,280.41 549.4131,273.18 596.3131,235.51 646.6931,201.86 690.6531,160.69 705.8631,150.35 692.3631,124.55 675.6931,127.96 663.8831,130.28 652.8531,135.21 641.7531,139.7 641.9531,135.8 639.7431,129.66 644.7831,128.43 674.8431,123.3 702.4431,109.56 731.2531,100 736.5031,99.5 736.0131,92.075 731.1631,91.25 706.5731,84.288 676.1931,93.424 654.7631,77.637 656.1431,51.687 678.0231,26.412 671.5631,0 H 663.5031 Z M 567.77,79.273 C 568.15,79.283 568.53,79.307 568.91,79.35 577.54,82 564.84,99.525 558.97,101.22 548.43,94.189 556.09,78.989 567.77,79.273 Z M 632.47,93.475 C 644.09,93.658 611.09,103.79 623.09,110.97 641.01,108.56 658.87,105.64 676.79,103.29 686.64,99.925 702.25,91.662 711.19,98.438 694.9,108.29 675.31,111.94 657.89,119.76 637.75,116.8 616.86,116.99 597.18,111.34 606.59,103.24 620.22,99.838 631.2,93.488 631.67,93.473 632.09,93.469 632.47,93.475 Z M 632.11,145.78 C 635.98,146.28 630.59,149.44 628.66,149.97 607.67,157.71 588.61,171.21 566.82,176.32 585.79,164.46 610.69,156.03 632.11,145.78 Z M 548.74,193.05 C 550.06,193.06 551.39,193.13 552.74,193.25 566.21,193.19 585.29,194.71 593.8,204.9 578.06,228.11 552.76,243.44 532.16,262.19 497.51,288.21 455.05,299.23 415.11,314.28 413.14569,289.37936 401.58088,274.97415 389.46,264.6 423.76,245.77 461.6,233.38 494.97,212.46 512.44,204.71 528.96,192.88 548.74,193.05 Z M 601.76,210.08 C 604.59,210.12 607.16,212.46 606.19,215.55 578.7,238.88 549.79,260.41 521.26,282.45 516.35,285.77 509.96,291.71 514.04,298.1 537.67,317.75 569.51,320.84 598.36,327.86 659.93,344.68 723,354.08 786.18,362.5 789.49,363.59 797.11,362.31 795.94,367.07 767.46,378.22 739.6,391.25 710.26,400.01 665.74,403.24 621.04,406.65 576.38,403.54 505.48,400.2 434.16,401.7 363.75,391.41 364.24,389.81 364.76,388.21 365.68,386.8 411.33,368.21 452.51,340.49 493.5,313.6 497.61,311.96 503.62,303.16 495.38,303.91 448.5,329.71 403.67,359.76 355.35,382.9 347.11,386.13 354.4,393.76 359.1,396.1 385.45,405.31 413.8,405.61 441.41,406.19 512.74,409.71 584.36,409.47 655.81,409.57 698.06,411.55 738.31,397.5 776.84,381.82 779.2,380.86 785.16,378.53 783.15,383.3 770.33,386.24 757.99,391.2 746.7,397.96 707.04,418.64 661.37,417.29 617.97,417.14 534.6,414.31 451.41,416.19 368.06,412.57 343.99,434.49 304.06,439.06 271.16,435.5 259.26,431.05 274.89,425.04 279.46,420.76 292.2,409.52 287.9,392.25 285.1,378.06 356.35,337.38 439.12,322.72 511.26,283.79 543.06,261.9 574.3,238.69 600.54,210.21 600.94,210.12 601.35,210.08 601.76,210.08 Z M 176.75,220.35 C 179.88,220.39 182.66,222.94 185.55,223.95 173.08,231.79 154.66,234.34 145.11,243.85 159.78,244.25 177.95,227.16 193.59,228.69 182.19,237.16 165.25,241.21 151.55,248.1 151.9,255.85 164.09,246.35 168.88,245 180.55,242.88 191.29,230.95 203.47,235.39 198.17,247.92 172.43,245.2 166.43,257.35 180.85,254.91 196.33,243.1 209.71,243.54 195.78,252.31 178.66,260.34 162.14,265.84 159.45,266.04 156.99,270.7 161.15,269.93 183.63,265.11 202.27,248.39 225.82,247.49 214.95,261.26 188.5,259.84 176.55,274.25 195.9,269.01 213.94,255.79 234,256.05 211.11,265.13 188.33,275.13 166.24,286.24 151.94,296.2 143.33,314.3 129.24,323.44 123.1,298.25 120.04,268.99 109.94,244.34 130.92,234.58 152.84,226.26 175.39,220.5 175.85,220.39 176.3,220.34 176.75,220.35 Z M 336.12,243.03 C 348.15181,248.61721 409.26197,291.4266 386.11,303.7 386.11,303.7 207.92,388.71 119.12,431.62 107.86,430.3 100.8,414.59 87.574,412.45 100.9,390.86 129.72,379.46 142.26,359.05 117.34,368.84 98.362,392.65 78.35,409.45 74.437,408.84 69.675,409.02 66.463,406.5 90.813,384.81 109.39,343.82 148.04,351.12 150.49,322.4 167.43,294.68 195.3,284.06 240.49,267.89 287.19,256.46 333.28,243.1 334.22,243.04 335.17,243.02 336.12,243.03 Z M 255.52,270.37 C 253.35,270.39 251.24,270.53 249.22,270.78 237.19,275.71 215.11,275.65 211.72,289.24 225.36,301.71 235.29,317.67 241.74,334.91 262.94,330.71 283.74,318.75 300,305 302.59,280.58 276.44,270.16 255.52,270.37 Z M 245.54,285.34 C 250.44,287.61 244.08,297.77 240.03,298.32 236.99,294.17 240.31,286.51 245.54,285.34 Z M 192.2,296.59 C 191.4,296.57 190.59,296.59 189.76,296.64 171.76,310.77 162.4,333.84 160.11,356.24 160.19,366.83 172.3,375.62 182.4,371.45 199.63,365.4 214.99,355.1 231.04,346.8 228.92,325.43 216.95,296.98 192.2,296.59 Z M 393.81,303.96 C 399.24,304.08 401.29,316.1 397.9,319.25 360.1,333.74 321.28,346.9 286.06,367.24 274.16,373.16 276.71,388.91 277.34,399.55 273.43,416.73 253.79,422.8 240.1,430.12 199.87,443.24 159.01,454.38 118.39,466.12 119.5,456.39 112.59,439 126.46,435.16 183.33,407.96 240.77,382.02 296.6,352.85 335.90171,333.4542 365.02585,319.00126 393.81,303.96 Z M 192.46,318.17 C 195.98,318.15 190.38,326.73 188.05,328.76 186.2,324.46 187.79,319.81 192.09,318.2 192.22,318.18 192.34,318.17 192.46,318.17 Z M 300.61,381.61 C 282.95,383.51 296.91,405.46 286.45,414.64 280.54,435.82 308.69,428.33 318.03,421.74 336.18,407.71 320.65,380.8 300.61,381.61 Z M 62.64,412.86 C 85.952,412.54 57.165,431.04 51.765,439.68 30.327,442.25 56.015,418.28 62.64,412.86 Z M 81.54,416.56 C 91.665,419.52 100.793,427.31 106.343,436.11 94.253,444.9 79.066,450.31 64.366,452.39 52.691,439.02 74.715,427.09 81.54,416.56 Z M 41.982,443.42 C 51.27,443.43 42.282,454.31 37.765,458.09 27.565,456.61 28.191,449.66 36.815,444.14 38.955,443.64 40.655,443.42 41.982,443.42 Z M 104.473,446.75 C 114.283,446.38 108.433,464.2 102.393,468.85 89.94,473.1 61.953,485.41 67.79,459.31 79.365,455.38 91.466,452.96 102.303,447.07 103.103,446.88 103.823,446.77 104.473,446.75 Z M 51.915,450.39 C 61.59,454.4 74.265,488.51 49.228,478.54 48.265,467.5 36.478,456.94 51.915,450.39 Z M 26.552,461.02 C 35.741,460.9 42.364,471.49 39.378,480.6 30.778,482.4 21.941,482.61 13.191,482.3 11.003,474.33 17.053,466.94 22.478,461.76 23.874,461.27 25.239,461.04 26.552,461.02 Z"
     transform="scale(0.8)"
     id="path2"
     sodipodi:nodetypes="ccccccccccccccccccccccccccccccccccccccccccccccccccccccccccccccccccccccccccccccccccccccccccccccccccccccccccccccccccccccccccccccccccccccccccccccccccccccccccccccccccccccccccccccccccccccc" />
  <g
     id="g5859"
     transform="matrix(-0.83587982,0.04110842,0.0432913,0.88026545,443.95334,-20.763182)">
    <g
       transform="matrix(-0.70666232,0,0,0.70666232,-6.0929638,-40.117016)"
       id="g5231">
      <g
         id="g5257"
         transform="translate(-6.4285711,-84.642857)" />
      <g
         transform="translate(-6.4285711,-92.64286)"
         id="g5273">
        <g
           id="g5275">
          <path
             style="fill:#ffffff;stroke:none"
             d="M -190.89286,425.75504 -145.89286,456.29075 -145.35714,456.6479 -136.42857,453.25504 -117.5,444.50504 -100.35714,435.75504 -81.785714,425.75504 -54.107143,409.1479 -46.25,404.32647 -89.821429,382.36218 -126.60714,401.82647 -144.28571,410.21932 -168.57143,418.96932 Z"
             id="path5277"
             inkscape:connector-curvature="0"
             transform="translate(6.4285711,84.642857)" />
          <path
             style="fill:#000000;stroke:none;fill-opacity:1"
             d="M -83.203841,466.29464 C -138.51393,497.789 -159.86799,501.92367 -186.79464,510.52755 L -139.29585,542.36607 C -103.44055,528.00353 -70.254991,509.48581 -38.223211,489.14886 Z M -83.518611,467.93411 -41.811591,489.11607 C -71.516611,507.97575 -105.54142,527.01387 -138.79222,540.33313 L -182.82854,510.82266 C -157.85781,502.84375 -134.81103,497.14075 -83.518611,467.93411 Z"
             id="path5279"
             inkscape:connector-curvature="0" />
        </g>
      </g>
      <g
         id="g5281"
         transform="translate(-6.4285711,-96.64286)">
        <g
           id="g5283">
          <path
             transform="translate(6.4285711,84.642857)"
             inkscape:connector-curvature="0"
             id="path5285"
             d="M -190.89286,425.75504 -145.89286,456.29075 -145.35714,456.6479 -136.42857,453.25504 -117.5,444.50504 -100.35714,435.75504 -81.785714,425.75504 -54.107143,409.1479 -46.25,404.32647 -89.821429,382.36218 -126.60714,401.82647 -144.28571,410.21932 -168.57143,418.96932 Z"
             style="fill:#ffffff;stroke:none" />
          <path
             inkscape:connector-curvature="0"
             id="path5287"
             d="M -83.203841,466.29464 C -138.51393,497.789 -159.86799,501.92367 -186.79464,510.52755 L -139.29585,542.36607 C -103.44055,528.00353 -70.254991,509.48581 -38.223211,489.14886 Z M -83.518611,467.93411 -41.811591,489.11607 C -71.516611,507.97575 -105.54142,527.01387 -138.79222,540.33313 L -182.82854,510.82266 C -157.85781,502.84375 -134.81103,497.14075 -83.518611,467.93411 Z"
             style="fill:#000000;stroke:none;fill-opacity:1" />
        </g>
      </g>
      <g
         transform="translate(-6.4285711,-100.64286)"
         id="g5289">
        <g
           id="g5291">
          <path
             style="fill:#ffffff;stroke:none"
             d="M -190.89286,425.75504 -145.89286,456.29075 -145.35714,456.6479 -136.42857,453.25504 -117.5,444.50504 -100.35714,435.75504 -81.785714,425.75504 -54.107143,409.1479 -46.25,404.32647 -89.821429,382.36218 -126.60714,401.82647 -144.28571,410.21932 -168.57143,418.96932 Z"
             id="path5293"
             inkscape:connector-curvature="0"
             transform="translate(6.4285711,84.642857)" />
          <path
             style="fill:#000000;stroke:none;fill-opacity:1"
             d="M -83.203841,466.29464 C -138.51393,497.789 -159.86799,501.92367 -186.79464,510.52755 L -139.29585,542.36607 C -103.44055,528.00353 -70.254991,509.48581 -38.223211,489.14886 Z M -83.518611,467.93411 -41.811591,489.11607 C -71.516611,507.97575 -105.54142,527.01387 -138.79222,540.33313 L -182.82854,510.82266 C -157.85781,502.84375 -134.81103,497.14075 -83.518611,467.93411 Z"
             id="path5295"
             inkscape:connector-curvature="0" />
        </g>
      </g>
      <g
         id="g5297"
         transform="translate(0,-14)">
        <path
           inkscape:connector-curvature="0"
           id="path5299"
           d="M -180.71429,422.00504 C -180.71429,422.00504 -175,425.93361 -174.28571,429.1479 -173.57143,432.36218 -150.35714,445.93361 -150.35714,445.93361 H -138.92857 L -131.07143,444.1479 -111.42857,434.86218 -95.714286,428.07647 -76.785714,417.71932 -58.928572,407.00504 V 395.57647 L -84.642857,383.43361 -97.5,385.21932 -109.28571,392.36218 -138.21429,405.21932 -175.71429,418.43361 Z"
           style="fill:none;stroke:none" />
        <g
           id="g5301"
           style="fill:#165016">
          <path
             style="fill:#000000;stroke:none;fill-opacity:1"
             d="M -89.65625,378.78125 C -144.56747,408.797 -165.76753,412.73755 -192.5,420.9375 L -145.34375,451.28125 C -109.74702,437.59301 -76.800778,419.94466 -45,400.5625 Z M -78.75,387.3125 -63.875,395 C -64.830399,396.91634 -65.375,399.03707 -65.375,401.28125 -65.375,403.83151 -64.682637,406.23852 -63.46875,408.34375 -84.932576,422.252 -108.85062,433.09712 -133.34375,443.21875 -136.05615,440.7287 -140.03515,439.15625 -144.46875,439.15625 -148.09242,439.15625 -151.39884,440.22304 -153.96875,441.96875 L -171.40625,430.65625 C -170.27886,428.87844 -169.65625,426.84934 -169.65625,424.6875 -169.65625,422.4205 -170.36315,420.30795 -171.59375,418.46875 -152.13877,413.33421 -117.47021,397.48856 -99.5625,388.53125 -96.985174,389.80211 -93.738418,390.5625 -90.1875,390.5625 -85.620484,390.5625 -81.530537,389.30183 -78.75,387.3125 Z"
             id="path5303"
             inkscape:connector-curvature="0" />
          <path
             style="color:#000000;display:inline;overflow:visible;visibility:visible;fill:#000000;stroke:none;stroke-width:0.0791407;marker:none;enable-background:accumulate;fill-opacity:1"
             d="M -146.36813,410.11743 C -147.95364,417.23157 -145.16765,424.15165 -137.96536,428.50621 -130.76303,432.86078 -120.79362,433.65267 -111.30307,431.31793 Z"
             id="path5305"
             inkscape:connector-curvature="0"
             sodipodi:nodetypes="cscc" />
          <path
             sodipodi:nodetypes="cscc"
             inkscape:connector-curvature="0"
             id="path5307"
             d="M -82.423075,417.96506 C -80.916996,411.41318 -83.563412,405.04001 -90.404879,401.0296 -97.246384,397.01918 -106.71634,396.28988 -115.73143,398.4401 Z"
             style="color:#000000;display:inline;overflow:visible;visibility:visible;fill:#000000;stroke:none;stroke-width:0.0740221;marker:none;enable-background:accumulate;fill-opacity:1" />
        </g>
      </g>
      <path
         style="fill:#000000;stroke:none;fill-opacity:1"
         d="M -145.17857,393.79076 -104.46429,418.79075 -104.31443,429.46162 -83.73564,419.0614 -83.571429,407.18361 -122.85714,383.79075 Z"
         id="path5309"
         inkscape:connector-curvature="0"
         sodipodi:nodetypes="ccccccc" />
    </g>
    <path
       sodipodi:nodetypes="cccccccccccccc"
       inkscape:connector-curvature="0"
       id="path5857"
       d="M 127.8464,248.20324 127.60787,249.96414 126.07245,251.37278 128.08603,252.62644 126.80958,254.24081 128.93838,255.47271 103.61656,271.73986 116.38045,261.55376 107.65697,266.04622 119.39616,256.4955 110.6768,261.12825 121.66488,252.22204 112.70363,257.91986 Z"
       style="fill:#000000;stroke:none;fill-opacity:1" />
  </g>
</svg>
